<svg version="1.1" viewBox="0 0 15.054 18.481" xmlns="http://www.w3.org/2000/svg">
 <path d="m7.6445 5.31c-0.73 0-1.86-0.83-3.05-0.8-1.57 0.02-3.01 0.91-3.82 2.32-1.63 2.83-0.42 7.01 1.17 9.31 0.78 1.12 1.7 2.38 2.92 2.34 1.17-0.05 1.61-0.76 3.03-0.76 1.41 0 1.81 0.76 3.05 0.73 1.26-0.02 2.06-1.14 2.83-2.27 0.89-1.3 1.26-2.56 1.28-2.63-0.03-0.01-2.45-0.94-2.48-3.74-0.02-2.34 1.91-3.46 2-3.51-1.1-1.61-2.79-1.79-3.38-1.83-1.54-0.12-2.83 0.84-3.55 0.84zm2.6-2.36c0.65-0.78 1.08-1.87 0.96-2.95-0.93 0.04-2.05 0.62-2.72 1.4-0.6 0.69-1.12 1.8-0.98 2.86 1.03 0.08 2.09-0.53 2.74-1.31" fill="#86868b"/>
</svg>
