<svg data-name="Layer 1" version="1.1" viewBox="0 0 18 21" xmlns="http://www.w3.org/2000/svg">
 <defs>
  <style>
      .cls-1 {
        fill: none;
      }

      .cls-2 {
        fill: #86868b;
      }
   </style>
 </defs>
 <title>bag_icon</title>
 <rect id="boundingbox" class="cls-1" width="18" height="21" fill="none" stroke-width=".71088"/>
 <path id="bag" class="cls-2" d="m15 4.3963h-1.788a4.227 4.2544 0 0 0-8.424 0h-1.788a2.5 2.5162 0 0 0-2.5 2.5162v11.071a2.5 2.5162 0 0 0 2.5 2.5162h12a2.5 2.5162 0 0 0 2.5-2.5162v-11.071a2.5 2.5162 0 0 0-2.5-2.5162zm-6-2.8936a3.243 3.264 0 0 1 3.212 2.8936h-6.424a3.243 3.264 0 0 1 3.212-2.8936zm7.5 16.481a1.5 1.5097 0 0 1-1.5 1.5097h-12a1.5 1.5097 0 0 1-1.5-1.5097v-11.071a1.5 1.5097 0 0 1 1.5-1.5097h12a1.5 1.5097 0 0 1 1.5 1.5097z" fill="#86868b" stroke-width="1.0032"/>
</svg>
